HIERARCHY
ROOT mixamorig_Hips
{
	OFFSET -0.000329 0.934763 0.013172
	CHANNELS 6 Xposition Yposition Zposition Xrotation Yrotation Zrotation
	JOINT mixamorig_Spine
	{
		OFFSET -0.000531 0.096594 0.001533
		CHANNELS 3 Xrotation Yrotation Zrotation
		JOINT mixamorig_Spine1
		{
			OFFSET -0.000284 0.099406 -0.006202
			CHANNELS 3 Xrotation Yrotation Zrotation
			JOINT mixamorig_Spine2
			{
				OFFSET -0.000665 0.100821 -0.005436
				CHANNELS 3 Xrotation Yrotation Zrotation
				JOINT mixamorig_Neck
				{
					OFFSET -0.003569 0.181005 -0.017910
					CHANNELS 3 Xrotation Yrotation Zrotation
					JOINT mixamorig_Head
					{
						OFFSET -0.000567 0.090675 0.004608
						CHANNELS 3 Xrotation Yrotation Zrotation
						End Site
						{
							OFFSET -0.027755 0.065308 0.087730
						}
						End Site
						{
							OFFSET 0.030266 0.066100 0.089151
						}
						End Site
						{
							OFFSET 0.000889 0.164225 0.030118
						}
					}
				}
				JOINT mixamorig_LeftShoulder
				{
					OFFSET 0.040153 0.123825 -0.018173
					CHANNELS 3 Xrotation Yrotation Zrotation
					JOINT mixamorig_LeftArm
					{
						OFFSET 0.096846 -0.006770 -0.015789
						CHANNELS 3 Xrotation Yrotation Zrotation
						JOINT mixamorig_LeftForeArm
						{
							OFFSET 0.260836 0.000158 -0.012098
							CHANNELS 3 Xrotation Yrotation Zrotation
							JOINT mixamorig_LeftHand
							{
								OFFSET 0.260721 0.009445 0.003518
								CHANNELS 3 Xrotation Yrotation Zrotation
								JOINT mixamorig_LeftHandThumb1
								{
									OFFSET 0.020007 -0.013915 0.025888
									CHANNELS 3 Xrotation Yrotation Zrotation
									JOINT mixamorig_LeftHandThumb2
									{
										OFFSET 0.024753 -0.016879 0.017465
										CHANNELS 3 Xrotation Yrotation Zrotation
										JOINT mixamorig_LeftHandThumb3
										{
											OFFSET 0.022267 -0.009924 0.010944
											CHANNELS 3 Xrotation Yrotation Zrotation
											End Site
											{
												OFFSET 0.012616 -0.008684 0.013475
											}
										}
									}
								}
								JOINT mixamorig_LeftHandIndex1
								{
									OFFSET 0.075712 -0.004005 0.022878
									CHANNELS 3 Xrotation Yrotation Zrotation
									JOINT mixamorig_LeftHandIndex2
									{
										OFFSET 0.032025 0.000805 0.000360
										CHANNELS 3 Xrotation Yrotation Zrotation
										JOINT mixamorig_LeftHandIndex3
										{
											OFFSET 0.021636 -0.000922 0.001709
											CHANNELS 3 Xrotation Yrotation Zrotation
											End Site
											{
												OFFSET 0.022272 0.000343 -0.000989
											}
										}
									}
								}
								JOINT mixamorig_LeftHandMiddle1
								{
									OFFSET 0.077672 0.000197 0.003119
									CHANNELS 3 Xrotation Yrotation Zrotation
									JOINT mixamorig_LeftHandMiddle2
									{
										OFFSET 0.028817 -0.000836 0.000007
										CHANNELS 3 Xrotation Yrotation Zrotation
										JOINT mixamorig_LeftHandMiddle3
										{
											OFFSET 0.027734 -0.001265 -0.001079
											CHANNELS 3 Xrotation Yrotation Zrotation
											End Site
											{
												OFFSET 0.021544 0.002739 0.001746
											}
										}
									}
								}
								JOINT mixamorig_LeftHandRing1
								{
									OFFSET 0.072647 0.000468 -0.012545
									CHANNELS 3 Xrotation Yrotation Zrotation
									JOINT mixamorig_LeftHandRing2
									{
										OFFSET 0.023428 0.001297 -0.001540
										CHANNELS 3 Xrotation Yrotation Zrotation
										JOINT mixamorig_LeftHandRing3
										{
											OFFSET 0.025300 -0.000202 0.000300
											CHANNELS 3 Xrotation Yrotation Zrotation
											End Site
											{
												OFFSET 0.021378 -0.000642 0.000026
											}
										}
									}
								}
								JOINT mixamorig_LeftHandPinky1
								{
									OFFSET 0.067362 -0.004561 -0.028241
									CHANNELS 3 Xrotation Yrotation Zrotation
									JOINT mixamorig_LeftHandPinky2
									{
										OFFSET 0.024539 0.000905 -0.001802
										CHANNELS 3 Xrotation Yrotation Zrotation
										JOINT mixamorig_LeftHandPinky3
										{
											OFFSET 0.016774 0.000497 -0.000418
											CHANNELS 3 Xrotation Yrotation Zrotation
											End Site
											{
												OFFSET 0.016253 0.001664 -0.000439
											}
										}
									}
								}
							}
						}
					}
				}
				JOINT mixamorig_RightShoulder
				{
					OFFSET -0.044710 0.123416 -0.018691
					CHANNELS 3 Xrotation Yrotation Zrotation
					JOINT mixamorig_RightArm
					{
						OFFSET -0.093285 -0.007451 -0.015294
						CHANNELS 3 Xrotation Yrotation Zrotation
						JOINT mixamorig_RightForeArm
						{
							OFFSET -0.260082 -0.000676 -0.016999
							CHANNELS 3 Xrotation Yrotation Zrotation
							JOINT mixamorig_RightHand
							{
								OFFSET -0.269354 0.006819 -0.001623
								CHANNELS 3 Xrotation Yrotation Zrotation
								JOINT mixamorig_RightHandPinky1
								{
									OFFSET -0.068944 -0.004710 -0.027276
									CHANNELS 3 Xrotation Yrotation Zrotation
									JOINT mixamorig_RightHandPinky2
									{
										OFFSET -0.028424 0.000709 -0.002294
										CHANNELS 3 Xrotation Yrotation Zrotation
										JOINT mixamorig_RightHandPinky3
										{
											OFFSET -0.014087 -0.000537 -0.000408
											CHANNELS 3 Xrotation Yrotation Zrotation
											End Site
											{
												OFFSET -0.016161 0.000319 -0.000701
											}
										}
									}
								}
								JOINT mixamorig_RightHandRing1
								{
									OFFSET -0.073644 -0.000271 -0.011566
									CHANNELS 3 Xrotation Yrotation Zrotation
									JOINT mixamorig_RightHandRing2
									{
										OFFSET -0.022262 0.002187 -0.001227
										CHANNELS 3 Xrotation Yrotation Zrotation
										JOINT mixamorig_RightHandRing3
										{
											OFFSET -0.024959 0.000014 0.001033
											CHANNELS 3 Xrotation Yrotation Zrotation
											End Site
											{
												OFFSET -0.020342 -0.002927 -0.000438
											}
										}
									}
								}
								JOINT mixamorig_RightHandMiddle1
								{
									OFFSET -0.078465 0.000178 0.003924
									CHANNELS 3 Xrotation Yrotation Zrotation
									JOINT mixamorig_RightHandMiddle2
									{
										OFFSET -0.030586 0.000877 -0.000514
										CHANNELS 3 Xrotation Yrotation Zrotation
										JOINT mixamorig_RightHandMiddle3
										{
											OFFSET -0.024860 -0.001171 -0.001812
											CHANNELS 3 Xrotation Yrotation Zrotation
											End Site
											{
												OFFSET -0.022346 -0.000216 0.001043
											}
										}
									}
								}
								JOINT mixamorig_RightHandIndex1
								{
									OFFSET -0.077138 -0.004903 0.023488
									CHANNELS 3 Xrotation Yrotation Zrotation
									JOINT mixamorig_RightHandIndex2
									{
										OFFSET -0.032982 0.000016 -0.000651
										CHANNELS 3 Xrotation Yrotation Zrotation
										JOINT mixamorig_RightHandIndex3
										{
											OFFSET -0.021521 -0.001038 0.000640
											CHANNELS 3 Xrotation Yrotation Zrotation
											End Site
											{
												OFFSET -0.019633 -0.001183 -0.002236
											}
										}
									}
								}
								JOINT mixamorig_RightHandThumb1
								{
									OFFSET -0.019217 -0.014120 0.025973
									CHANNELS 3 Xrotation Yrotation Zrotation
									JOINT mixamorig_RightHandThumb2
									{
										OFFSET -0.024531 -0.016682 0.017772
										CHANNELS 3 Xrotation Yrotation Zrotation
										JOINT mixamorig_RightHandThumb3
										{
											OFFSET -0.020595 -0.008213 0.010052
											CHANNELS 3 Xrotation Yrotation Zrotation
											End Site
											{
												OFFSET -0.018779 -0.008914 0.011284
											}
										}
									}
								}
							}
						}
					}
				}
			}
		}
	}
	JOINT mixamorig_LeftUpLeg
	{
		OFFSET 0.082644 -0.061097 -0.015299
		CHANNELS 3 Xrotation Yrotation Zrotation
		JOINT mixamorig_LeftLeg
		{
			OFFSET 0.011706 -0.407894 -0.000411
			CHANNELS 3 Xrotation Yrotation Zrotation
			JOINT mixamorig_LeftFoot
			{
				OFFSET -0.009807 -0.381384 -0.042699
				CHANNELS 3 Xrotation Yrotation Zrotation
				JOINT mixamorig_LeftToeBase
				{
					OFFSET -0.009374 -0.069665 0.102141
					CHANNELS 3 Xrotation Yrotation Zrotation
					End Site
					{
						OFFSET -0.003020 -0.006885 0.094051
					}
				}
			}
		}
	}
	JOINT mixamorig_RightUpLeg
	{
		OFFSET -0.081973 -0.063719 -0.012470
		CHANNELS 3 Xrotation Yrotation Zrotation
		JOINT mixamorig_RightLeg
		{
			OFFSET -0.006811 -0.412091 0.011100
			CHANNELS 3 Xrotation Yrotation Zrotation
			JOINT mixamorig_RightFoot
			{
				OFFSET 0.004573 -0.370721 -0.055504
				CHANNELS 3 Xrotation Yrotation Zrotation
				JOINT mixamorig_RightToeBase
				{
					OFFSET 0.011350 -0.073821 0.101054
					CHANNELS 3 Xrotation Yrotation Zrotation
					End Site
					{
						OFFSET 0.000203 -0.006417 0.095416
					}
				}
			}
		}
	}
}
MOTION
Frames: 6
Frame Time: 0.03333333333333333
0.000025 0.018867 -0.022900 0.185550 9.664890 -5.771016 5.311230 -0.916440 3.507735 -0.642680 0.623537 5.747533 -0.167128 1.148037 5.838744 1.347240 -0.440664 -1.962269 2.700132 -0.065278 -7.851562 4.477103 -13.956707 -2.517795 -2.374368 -8.730650 -84.014034 0.083774 -11.045204 -1.061075 -28.459857 -3.677426 -11.409584 37.555037 14.401812 -18.636694 -17.328612 16.949645 -0.879349 -3.011449 -4.391612 -3.274068 0.574200 7.119733 5.979468 -0.551086 1.446129 -25.323118 -0.727367 0.011686 -16.154001 0.000001 -0.000002 0.000000 0.000001 0.000002 -0.000000 0.000002 0.000002 0.000000 -0.000002 -0.000001 0.000000 -0.000001 -0.000002 -0.000000 -0.000010 -0.000001 -0.000000 -0.000001 -0.000000 0.000000 0.000001 -0.000002 -0.000000 -0.000004 0.000001 0.000001 3.724017 3.694907 5.064843 -7.499244 -2.564064 67.979249 0.094246 14.303555 0.426129 -12.476863 -3.634475 15.798284 -0.000004 0.000002 -0.000001 -0.000004 0.000002 -0.000001 -0.000004 -0.000000 -0.000001 -0.000003 0.000003 -0.000001 -0.000004 -0.000000 -0.000000 -0.000005 -0.000002 0.000006 -0.000007 -0.000001 0.000000 -0.000000 -0.000002 -0.000002 0.000009 -0.000002 0.000001 0.916750 -7.620510 -20.046198 -0.996011 -0.940151 36.212174 -1.708429 0.862199 24.482242 34.438078 -14.837030 16.008053 -18.191129 -15.940880 -1.106031 -3.104622 -0.750186 1.648043 -23.748067 10.386387 12.649979 24.063405 10.496749 9.212620 -3.305346 4.055746 -11.449131 0.000000 -0.000000 -0.000000 -2.229199 -4.881505 10.738835 7.427132 -5.019394 4.859625 -9.602274 1.871890 -9.303999 0.000000 0.000000 -0.000000 
0.000074 0.018878 -0.022899 0.187919 9.670131 -5.770290 5.310002 -0.918046 3.507247 -0.644446 0.622535 5.745236 -0.168927 1.147255 5.836407 1.344602 -0.436831 -1.965414 2.680494 -0.050428 -7.864186 4.479309 -13.948564 -2.507196 -2.390343 -8.727531 -84.032517 0.083578 -11.032434 -1.061954 -28.437152 -3.679862 -11.433859 37.552272 14.389689 -18.635241 -17.327679 16.937330 -0.878573 -3.010412 -4.403976 -3.273916 0.574242 7.119697 5.981121 -0.551074 1.446053 -25.321527 -0.727300 0.011623 -16.152365 0.000001 -0.000003 -0.000000 0.000001 0.000001 0.000000 0.000001 0.000001 -0.000000 -0.000001 -0.000001 -0.000000 -0.000001 -0.000002 -0.000000 -0.000010 -0.000001 -0.000000 -0.000000 -0.000000 0.000000 0.000000 -0.000001 -0.000000 -0.000004 0.000001 0.000001 3.730562 3.692458 5.045630 -7.506148 -2.574363 67.997903 0.094131 14.297987 0.426559 -12.472512 -3.636086 15.803562 -0.000004 0.000002 -0.000001 -0.000004 0.000002 -0.000001 -0.000003 0.000001 -0.000001 -0.000003 0.000002 -0.000002 -0.000004 0.000001 -0.000000 -0.000005 -0.000001 0.000006 -0.000007 -0.000002 -0.000000 -0.000000 -0.000003 -0.000001 0.000009 -0.000002 0.000001 0.916812 -7.620456 -20.047820 -0.996005 -0.940093 36.210547 -1.708350 0.862302 24.480634 34.436165 -14.824779 16.007241 -18.189646 -15.928570 -1.106111 -3.103477 -0.737856 1.648468 -23.747734 10.382603 12.642850 24.061686 10.496395 9.213618 -3.304198 4.054157 -11.448514 0.000000 -0.000000 -0.000000 -2.229243 -4.885252 10.736127 7.424444 -5.030093 4.856472 -9.602565 1.871028 -9.298343 0.000000 0.000000 -0.000000 
0.000114 0.018883 -0.022898 0.190016 9.678277 -5.772225 5.307960 -0.920384 3.507174 -0.648196 0.620859 5.741881 -0.172712 1.145973 5.833002 1.342600 -0.432709 -1.967467 2.656481 -0.035632 -7.865844 4.482481 -13.945656 -2.478360 -2.401680 -8.726719 -84.069222 0.083402 -11.022151 -1.062665 -28.417837 -3.679995 -11.442539 37.546261 14.363218 -18.632067 -17.325675 16.910401 -0.876861 -3.008129 -4.430999 -3.273559 0.574362 7.119619 5.984657 -0.550996 1.445916 -25.317962 -0.727177 0.011488 -16.148813 0.000001 -0.000004 -0.000000 0.000001 0.000002 0.000000 0.000001 0.000001 -0.000000 -0.000001 -0.000001 0.000000 -0.000001 -0.000002 0.000000 -0.000010 -0.000000 -0.000000 -0.000001 -0.000001 0.000000 0.000001 -0.000001 -0.000000 -0.000004 0.000002 0.000000 3.744976 3.684378 5.005915 -7.519660 -2.583359 68.041478 0.093955 14.288775 0.427228 -12.464351 -3.635535 15.819426 -0.000004 0.000002 -0.000001 -0.000004 0.000002 -0.000001 -0.000003 0.000001 -0.000001 -0.000003 0.000002 -0.000001 -0.000004 0.000001 0.000000 -0.000005 -0.000002 0.000006 -0.000007 -0.000002 0.000000 -0.000000 -0.000003 -0.000001 0.000009 -0.000002 0.000001 0.916898 -7.620412 -20.051363 -0.995932 -0.939936 36.206974 -1.708171 0.862500 24.477084 34.431937 -14.797917 16.005542 -18.186366 -15.901656 -1.106284 -3.100969 -0.710868 1.649381 -23.750296 10.377598 12.638203 24.063168 10.496211 9.216526 -3.304639 4.048832 -11.449205 0.000000 -0.000000 -0.000000 -2.229303 -4.887852 10.736966 7.422342 -5.042378 4.852913 -9.603194 1.870244 -9.292932 0.000000 0.000000 -0.000000 
0.000153 0.018884 -0.022897 0.192230 9.689273 -5.775893 5.304486 -0.923615 3.506344 -0.654376 0.618677 5.738298 -0.178942 1.144393 5.829366 1.342434 -0.429970 -1.967905 2.634994 -0.027133 -7.857241 4.486622 -13.945101 -2.429053 -2.406859 -8.729698 -84.125285 0.083324 -11.017887 -1.062977 -28.406903 -3.672519 -11.432597 37.537009 14.322396 -18.627161 -17.322578 16.868839 -0.874244 -3.004616 -4.472661 -3.273027 0.574555 7.119499 5.990116 -0.550872 1.445712 -25.312473 -0.726991 0.011287 -16.143320 0.000001 -0.000004 0.000000 0.000001 0.000002 0.000000 0.000001 0.000000 -0.000000 -0.000001 -0.000001 0.000000 -0.000001 -0.000001 0.000000 -0.000010 -0.000000 -0.000000 -0.000001 -0.000001 -0.000000 0.000001 -0.000001 0.000000 -0.000004 0.000002 0.000000 3.766282 3.672890 4.950057 -7.536064 -2.592627 68.103437 0.093788 14.279610 0.427868 -12.457771 -3.632327 15.836794 -0.000004 0.000002 -0.000000 -0.000004 0.000002 -0.000001 -0.000004 0.000001 -0.000002 -0.000004 0.000002 -0.000001 -0.000004 0.000000 0.000001 -0.000005 -0.000002 0.000006 -0.000007 -0.000001 0.000001 -0.000000 -0.000003 -0.000001 0.000009 -0.000002 0.000001 0.917037 -7.620355 -20.056823 -0.995827 -0.939699 36.201488 -1.707878 0.862795 24.471598 34.425416 -14.756501 16.002940 -18.181332 -15.860150 -1.106549 -3.097093 -0.669254 1.650777 -23.753998 10.369844 12.633059 24.065920 10.495971 9.221874 -3.307011 4.044685 -11.450151 0.000000 -0.000000 -0.000000 -2.230260 -4.889623 10.740001 7.421870 -5.056665 4.848549 -9.604824 1.869549 -9.287015 0.000000 0.000000 -0.000000 
0.000195 0.018881 -0.022895 0.194703 9.702328 -5.780477 5.299257 -0.927402 3.503999 -0.663125 0.616193 5.735095 -0.187775 1.142722 5.826094 1.344469 -0.429558 -1.966930 2.621904 -0.028531 -7.840945 4.491816 -13.943714 -2.358091 -2.405280 -8.736199 -84.201719 0.083383 -11.021319 -1.062751 -28.408051 -3.657237 -11.407291 37.524593 14.267525 -18.620573 -17.318406 16.812967 -0.870753 -2.999901 -4.528642 -3.272322 0.574818 7.119338 5.997462 -0.550717 1.445442 -25.305117 -0.726742 0.011015 -16.135934 0.000001 -0.000003 -0.000000 0.000001 0.000002 0.000000 0.000001 0.000001 -0.000000 -0.000001 -0.000001 0.000000 -0.000001 -0.000000 0.000000 -0.000010 -0.000001 -0.000001 -0.000001 -0.000001 -0.000000 0.000000 -0.000001 0.000000 -0.000004 0.000002 0.000000 3.793658 3.659813 4.881062 -7.551873 -2.602250 68.178434 0.093678 14.273024 0.428306 -12.455331 -3.626670 15.847689 -0.000004 0.000002 -0.000000 -0.000004 0.000001 -0.000001 -0.000004 0.000000 -0.000001 -0.000004 0.000002 -0.000001 -0.000004 0.000000 0.000000 -0.000005 -0.000001 0.000006 -0.000007 -0.000002 0.000001 -0.000000 -0.000003 -0.000001 0.000009 -0.000002 0.000000 0.917234 -7.620276 -20.064156 -0.995706 -0.939395 36.194136 -1.707478 0.863194 24.464229 34.416660 -14.700864 15.999450 -18.174597 -15.804378 -1.106908 -3.091875 -0.613345 1.652643 -23.757819 10.358954 12.625834 24.069050 10.495585 9.229576 -3.311129 4.044611 -11.450361 0.000000 -0.000000 -0.000000 -2.232501 -4.890936 10.743970 7.423499 -5.072349 4.843493 -9.607652 1.868926 -9.280330 0.000000 0.000000 -0.000000 
0.000242 0.018876 -0.022895 0.197330 9.715915 -5.785275 5.292235 -0.930910 3.499792 -0.674275 0.613643 5.732652 -0.199063 1.141171 5.823550 1.348231 -0.431691 -1.965470 2.622048 -0.040778 -7.821381 4.498222 -13.938001 -2.265341 -2.397266 -8.744191 -84.299405 0.083580 -11.032264 -1.061935 -28.423692 -3.639060 -11.376163 37.509154 14.199217 -18.612403 -17.313218 16.743440 -0.866425 -2.994021 -4.598328 -3.271421 0.575144 7.119142 6.006583 -0.550538 1.445109 -25.295962 -0.726432 0.010655 -16.126776 0.000002 -0.000003 -0.000001 0.000001 0.000002 -0.000000 0.000001 0.000002 -0.000000 -0.000001 -0.000001 -0.000000 -0.000001 -0.000000 -0.000000 -0.000010 -0.000001 -0.000001 0.000000 -0.000001 -0.000000 0.000001 -0.000001 0.000000 -0.000004 0.000002 0.000000 3.826448 3.646555 4.800586 -7.563833 -2.610812 68.262299 0.093657 14.270395 0.428459 -12.456760 -3.619467 15.845235 -0.000004 0.000002 0.000000 -0.000004 0.000002 -0.000001 -0.000004 0.000001 -0.000000 -0.000004 0.000002 -0.000001 -0.000004 0.000001 0.000000 -0.000005 -0.000001 0.000007 -0.000007 -0.000002 0.000000 -0.000000 -0.000002 -0.000001 0.000009 -0.000002 0.000000 0.917475 -7.620178 -20.073279 -0.995568 -0.939027 36.184979 -1.706988 0.863702 24.455070 34.405799 -14.631620 15.995137 -18.166232 -15.734990 -1.107370 -3.085367 -0.543774 1.654960 -23.761476 10.345676 12.616334 24.072701 10.495103 9.238925 -3.316276 4.049483 -11.448912 0.000000 -0.000000 -0.000000 -2.235911 -4.892216 10.747695 7.427121 -5.087803 4.838374 -9.611405 1.868335 -9.273112 0.000000 0.000000 -0.000000 
